<svg xmlns="http://www.w3.org/2000/svg" width="1467" height="232" viewBox="0 0 1466.667 232"><g fill="#7b7979"><path d="M369.67 150.41c-6.144 6.517-16.2 17.318-34.638 17.318-24.4 0-45.816-22.16-45.816-48.05 0-27.562 22.535-47.676 44.883-47.676 15.272 0 27.006 6.892 36.875 18.25h29.054c-13.222-30.17-42.092-42.1-64.996-42.1-39.856 0-71.332 33.153-71.332 71.144 0 38.923 32.033 72.26 71.888 72.26 26.446 0 52.89-15.832 63.692-41.158h-29.6"/><path d="M456.75 192.13c28.68 0 54.755-21.418 54.755-55.315 0-31.66-25.517-54.94-54.755-54.94-29.6 0-55.128 24.023-55.128 55.313 0 29.6 24.4 54.94 55.128 54.94zm0-22.723c-15.645 0-30.357-12.662-30.357-32.217 0-21.606 17.506-32.6 30.357-32.6 15.458 0 29.982 13.968 29.982 32.777 0 16.388-11.918 32.03-29.982 32.03m63.624 19.37h24.77V85.416h-24.77zm0-115.093h24.77V50.96h-24.77v22.723" fill-rule="evenodd"/><path d="M559.653 188.776h24.77v-49.168c0-8.753 0-19.554 4.47-25.885 4.47-6.89 12.478-9.125 16.948-9.125 20.858 0 20.858 24.58 20.858 33.15v51.03h24.77v-55.872c0-8.008 0-25.33-9.497-36.687-8.566-10.43-22.162-14.34-31.102-14.34-15.645 0-24.21 8.566-28.306 12.477v-8.937h-22.907v103.36"/></g><g fill="#231f20"><path d="M659.757 149.293c1.492 30.358 27.193 42.278 44.886 42.278 21.602 0 44.695-14.156 44.695-43.95 0-29.986-24.77-38.74-36.13-42.464C699.24 100.5 690.3 97.892 690.3 85.973c0-8.193 6.147-13.968 14.154-13.968 6.9 0 14.34 3.167 15.46 15.456h26.073c-1.304-28.12-24.77-39.295-40.788-39.295-23.278 0-40.412 17.32-40.412 39.295 0 29.055 22.163 35.574 32.777 39.67 17.137 6.516 26.26 9.125 26.26 23.28 0 10.43-8.94 17.318-18.997 17.318-7.82 0-16.948-4.655-18.25-18.437h-26.82m176.463 5.774c-6.52 10.43-14.714 14.34-22.907 14.34-18.624 0-31.103-14.712-31.103-32.405 0-21.23 14.9-32.405 29.985-32.405 15.272 0 21.045 9.87 24.026 15.084h27.934c-10.616-31.847-38.922-37.806-51.96-37.806-28.494 0-54.752 23.094-54.752 54.753 0 34.268 28.494 55.5 54.94 55.5 24.2 0 43.394-13.97 51.773-37.062H836.22m37.918 33.71h24.77v-52.52c0-8.752 0-31.66 20.858-31.66 20.486 0 21.23 20.114 21.23 31.287v52.9h24.77V130.48c0-7.636 0-22.347-8.196-32.778-7.448-9.496-20.298-15.83-31.847-15.83-15.456 0-23.65 7.822-26.817 10.8V50.957h-24.77V188.78"/><path d="M1082.266 148.175c.745-3.35 1.5-7.636 1.5-12.478 0-26.073-20.674-54.38-53.45-54.38-31.846 0-54.38 26.818-54.38 56.056 0 30.17 23.835 54.755 54.567 54.755 24.2 0 43.95-17.32 49.9-35.944h-26.073c-4.655 8.568-12.85 13.222-23.837 13.222-17.693 0-27.377-14.526-28.494-21.23zm-81.013-19.926c4.656-19.182 20.1-24.2 29.24-24.2 12.3 0 25.14 7.636 27.934 24.2h-57.173m199.383-77.284h-24.77v43.582c-7.264-7.636-16.204-12.665-31.3-12.665-24.77 0-52.705 20.486-52.705 55.313 0 33.334 26.446 54.94 52.705 54.94 17.506 0 28.307-8.568 32.965-16.016h.372v12.664h22.72zm-84 85.298c0-14.528 12.102-31.66 30.54-31.66 17.508 0 30.543 15.457 30.543 32.405 0 15.645-11.918 32.405-30.543 32.405-16.2 0-30.54-13.966-30.54-33.15" fill-rule="evenodd"/><path d="M1283.088 85.417v52.9c0 16.388-5.215 31.1-20.858 31.1-21.603 0-21.603-22.906-21.603-31.287V85.417h-24.77v54.008c0 8.568 0 25.33 7.636 36.314 5.215 7.08 15.83 16.392 34.64 16.392 15.832 0 22.534-8.196 26.633-13.782h.372v10.43h22.722V85.417h-24.77m39.597 103.36h24.763V50.953h-24.763v137.823"/><path d="M1463.83 148.175c.747-3.35 1.493-7.636 1.493-12.478 0-26.073-20.68-54.38-53.452-54.38-31.853 0-54.385 26.818-54.385 56.056 0 30.17 23.84 54.755 54.572 54.755 24.213 0 43.946-17.32 49.905-35.944h-26.066c-4.667 8.568-12.853 13.222-23.84 13.222-17.693 0-27.386-14.526-28.493-21.23zm-81-19.926c4.653-19.182 20.106-24.2 29.24-24.2 12.293 0 25.133 7.636 27.933 24.2h-57.172M231.634 200.185L201 230.83l-33.318-33.318c-14.885 9.343-32.495 14.745-51.368 14.745s-36.488-5.404-51.377-14.75L31.614 230.82.97 200.175l33.314-33.315C24.94 151.972 19.54 134.362 19.54 115.5s5.403-36.483 14.745-51.37L.967 30.8 31.6.156l33.317 33.317c14.888-9.346 32.502-14.752 51.38-14.752s36.483 5.404 51.37 14.748L200.996.146l30.645 30.646-33.32 33.32c9.345 14.9 14.75 32.502 14.75 51.38s-5.405 36.5-14.752 51.38zM116.306 57.042c-32.278 0-58.444 26.166-58.444 58.445s26.166 58.444 58.444 58.444 58.444-26.165 58.444-58.444-26.165-58.445-58.443-58.445" fill-rule="evenodd"/></g><g fill="#7b7979"><path d="M116.242 96.243c-10.71 0-19.393 8.683-19.393 19.394s8.682 19.393 19.393 19.393 19.393-8.683 19.393-19.393-8.682-19.394-19.393-19.394"/><path d="M143.623 77.23l11.432 11.432-34.1 34.1-11.43-11.432 34.098-34.1"/><path d="M148.916 137.69l-10.252 10.25-30.58-30.58 10.252-10.25 30.58 30.58"/></g></svg>